<svg width="512" height="474" viewBox="0 0 512 474" fill="none" xmlns="http://www.w3.org/2000/svg">
<path d="M214.685 383.828C189.856 383.828 169.656 404.028 169.656 428.857C169.656 453.686 189.856 473.886 214.685 473.886C239.514 473.886 259.714 453.686 259.714 428.857C259.713 404.028 239.513 383.828 214.685 383.828ZM214.685 448.742C203.719 448.742 194.798 439.82 194.798 428.855C194.798 417.889 203.72 408.968 214.685 408.968C225.65 408.968 234.572 417.89 234.572 428.855C234.572 439.822 225.65 448.742 214.685 448.742Z" fill="white"/>
<path d="M372.63 383.828C347.801 383.828 327.601 404.028 327.601 428.857C327.601 453.686 347.801 473.886 372.63 473.886C397.459 473.886 417.659 453.686 417.659 428.857C417.658 404.028 397.458 383.828 372.63 383.828ZM372.63 448.742C361.664 448.742 352.743 439.82 352.743 428.855C352.743 417.889 361.665 408.968 372.63 408.968C383.596 408.968 392.517 417.89 392.517 428.855C392.517 439.822 383.595 448.742 372.63 448.742Z" fill="white"/>
<path d="M383.716 146.755H203.567C196.624 146.755 190.996 152.383 190.996 159.326C190.996 166.269 196.625 171.897 203.567 171.897H383.716C390.659 171.897 396.287 166.269 396.287 159.326C396.287 152.382 390.659 146.755 383.716 146.755Z" fill="white"/>
<path d="M373.911 212.035H213.373C206.43 212.035 200.802 217.663 200.802 224.606C200.802 231.549 206.43 237.177 213.373 237.177H373.91C380.853 237.177 386.481 231.549 386.481 224.606C386.481 217.664 380.853 212.035 373.911 212.035Z" fill="white"/>
<path d="M506.341 90.744C501.547 84.86 494.443 81.486 486.852 81.486H95.278L87.37 43.097C85.719 35.089 80.257 28.365 72.756 25.108L17.579 1.15804C11.209 -1.60896 3.80596 1.31403 1.04296 7.68203C-1.72304 14.052 1.19996 21.456 7.56696 24.219L62.745 48.17L123.571 343.431C125.967 355.059 136.323 363.499 148.196 363.499H449.362C456.305 363.499 461.933 357.871 461.933 350.928C461.933 343.985 456.305 338.357 449.362 338.357H148.197L140.798 302.441H451.69C463.562 302.441 473.919 294.001 476.314 282.373L511.477 111.698C513.008 104.266 511.136 96.627 506.341 90.744ZM451.69 277.301H135.619L100.458 106.627L486.851 106.628L451.69 277.301Z" fill="white"/>
</svg>
